<!-- Generated by IcoMoon.io -->
<svg version="1.1" xmlns="http://www.w3.org/2000/svg" width="32" height="32" viewBox="0 0 32 32">
<title>almond</title>
<path d="M30.604 6.75c-0.182-0.981-0.922-1.796-1.874-2.085-0.285-0.087-0.583-0.125-0.881-0.113-1.993 0.081-5.95 0.666-10.483 3.624-0.171-0.408-0.35-0.809-0.541-1.202-1.546-3.196-3.413-5.204-4.707-6.325-0.739-0.641-1.816-0.823-2.728-0.476-0.29 0.11-0.561 0.272-0.796 0.476-1.514 1.312-3.656 3.692-5.27 7.581-0.099 0.24 0.014 0.514 0.254 0.614s0.514-0.014 0.614-0.254c1.289-3.106 2.921-5.198 4.262-6.529-0.579 1.17-1.233 2.804-1.805 4.999-0.982 3.773-1.48 8.267-1.48 13.357 0 3.381 0.492 6.269 1.422 8.352 0.319 0.714 0.686 1.318 1.090 1.803-1.205-0.46-2.286-1.238-3.164-2.295-1.609-1.937-2.46-4.655-2.46-7.86 0-3.715 0.507-7.127 1.506-10.14 0.082-0.246-0.052-0.512-0.298-0.594s-0.512 0.052-0.594 0.298c-1.031 3.108-1.553 6.619-1.553 10.435 0 3.427 0.926 6.352 2.676 8.46 1.672 2.013 4.002 3.122 6.561 3.122 0.789 0 1.556-0.106 2.29-0.311 0.735 0.206 1.493 0.31 2.264 0.31 1.154 0 2.333-0.23 3.494-0.688 2.067-0.815 4.042-2.353 5.712-4.446 1.449-1.817 2.687-3.68 3.678-5.539 0.122-0.229 0.035-0.514-0.194-0.636s-0.514-0.035-0.636 0.194c-0.964 1.808-2.17 3.623-3.583 5.395-1.568 1.965-3.409 3.403-5.323 4.158-1.261 0.497-2.541 0.697-3.772 0.596 0.985-0.522 1.875-1.246 2.631-2.156 0.276-0.332 0.531-0.684 0.766-1.056 1.096-0.968 2.195-2.14 3.267-3.483 3.175-3.979 5.589-7.802 7.175-11.364 0.922-2.070 1.429-3.754 1.706-5.029 0.272 2.391 0.177 6.385-2.047 11.28-0.099 0.218-0.013 0.483 0.195 0.602 0.237 0.136 0.548 0.035 0.661-0.213 2.687-5.915 2.384-10.599 1.964-12.864zM18.782 12.654c4.48-4.371 7.886-6.072 9.614-6.714l-8.934 11.197c-0.131-1.56-0.358-3.056-0.68-4.483zM26.851 5.571c-3.276 1.529-6.394 4.186-8.327 6.027-0.231-0.871-0.499-1.714-0.803-2.53 3.721-2.469 7.033-3.263 9.131-3.498zM6.111 20.418c0-5.010 0.488-9.425 1.449-13.121 0.764-2.936 1.672-4.814 2.328-5.903v29.608c-0.924-0.23-1.777-1.138-2.437-2.616-0.877-1.963-1.341-4.718-1.341-7.968zM16.196 28.278c-0.878 1.057-1.959 1.835-3.164 2.295 0.404-0.485 0.771-1.089 1.090-1.803 0.931-2.082 1.422-4.97 1.422-8.352 0-0.259-0.21-0.47-0.47-0.47s-0.47 0.21-0.47 0.47c0 3.25-0.464 6.006-1.341 7.968-0.66 1.477-1.512 2.385-2.437 2.616v-29.608c1.315 2.181 3.458 7.178 3.746 16.85 0.008 0.259 0.226 0.464 0.484 0.456 0.259-0.008 0.463-0.224 0.456-0.484-0.252-8.465-1.919-13.467-3.25-16.151 1.136 1.13 2.524 2.85 3.718 5.319 1.775 3.67 2.675 8.056 2.675 13.035-0 3.205-0.851 5.923-2.46 7.86zM27.268 12.593c-1.553 3.489-3.926 7.244-7.051 11.16-0.455 0.57-0.914 1.107-1.375 1.61 0.497-1.479 0.754-3.142 0.754-4.945 0-0.639-0.015-1.268-0.043-1.888l9.578-12.003c-0.167 1.26-0.628 3.295-1.862 6.066z"></path>
</svg>
