<!-- Generated by IcoMoon.io -->
<svg version="1.1" xmlns="http://www.w3.org/2000/svg" width="32" height="32" viewBox="0 0 32 32">
<title>bread</title>
<path d="M30.116 18.15c-0.198-0.168-0.493-0.143-0.661 0.054s-0.143 0.493 0.054 0.661c1.015 0.86 1.552 1.824 1.553 2.785 0.001 0.645-0.23 1.191-0.708 1.668-0.798 0.798-2.282 1.392-4.412 1.766-1.912 0.336-4.306 0.499-7.322 0.493-4.656-0.006-7.941-0.409-9.996-1.229 0.792-0.563 1.639-1.239 2.547-2.033 0.275 0.329 0.669 0.546 1.111 0.591 0.918 0.093 1.744-0.587 1.832-1.51 0.059-0.617 0.060-1.239 0.005-1.851 0.823-0.821 1.565-1.596 2.232-2.331 0.376 0.643 0.634 1.321 0.77 2.022 0.116 0.598 0.144 1.216 0.085 1.839-0.088 0.922 0.586 1.748 1.506 1.841 0.916 0.093 1.735-0.582 1.824-1.511 0.091-0.944 0.047-1.888-0.131-2.807-0.188-0.968-0.525-1.903-1.004-2.789 0.9 0.028 1.781 0.101 2.63 0.218 0.783 0.992 1.265 2.071 1.434 3.212 0.089 0.602 0.090 1.221 0.002 1.84-0.13 0.918 0.506 1.773 1.419 1.907 0.905 0.133 1.763-0.502 1.894-1.426 0.133-0.941 0.131-1.886-0.005-2.81-0.082-0.556-0.214-1.106-0.394-1.644 0.466 0.179 0.911 0.375 1.329 0.588 0.227 0.116 0.511 0.028 0.63-0.205 0.117-0.231 0.026-0.513-0.205-0.63-2.576-1.311-6.137-2.034-9.798-1.999 0.252-0.327 0.487-0.645 0.705-0.956 1.373-1.959 2.040-3.563 2.040-4.907 0-0.924-0.321-1.712-0.955-2.344-1.325-1.322-3.57-1.53-6.319-0.587-2.637 0.905-5.462 2.773-7.955 5.259-3.612 3.602-5.856 7.831-5.856 11.038 0 1.33 0.405 2.436 1.171 3.2 0.635 0.634 1.417 0.95 2.338 0.95 0.975 0 2.107-0.355 3.388-1.064 0.263-0.145 0.532-0.306 0.809-0.482 2.138 1.033 5.713 1.54 10.914 1.547 2.973 0.004 5.563-0.169 7.486-0.507 2.356-0.414 3.963-1.077 4.912-2.027 0.653-0.653 0.983-1.438 0.982-2.332-0.002-1.245-0.653-2.455-1.884-3.499zM25.228 16.713c0.302 0.703 0.511 1.434 0.62 2.175 0.123 0.835 0.125 1.69 0.004 2.542-0.058 0.408-0.428 0.688-0.83 0.63-0.403-0.059-0.684-0.44-0.626-0.848 0.1-0.708 0.099-1.417-0.003-2.108-0.148-1.003-0.506-1.961-1.064-2.86 0.658 0.13 1.293 0.286 1.899 0.469zM13.182 21.308c-0.037 0.383-0.349 0.671-0.728 0.671-0.232 0-0.442-0.106-0.581-0.287 0.436-0.396 0.886-0.818 1.35-1.266 0.001 0.294-0.013 0.588-0.041 0.882zM19.486 18.777c0.161 0.831 0.2 1.685 0.118 2.54-0.039 0.409-0.397 0.708-0.801 0.668-0.405-0.041-0.702-0.408-0.663-0.819 0.068-0.712 0.035-1.421-0.098-2.106-0.174-0.901-0.524-1.766-1.039-2.576 0.196-0.226 0.386-0.448 0.567-0.666 0.246-0.009 0.493-0.016 0.742-0.019 0.576 0.936 0.971 1.937 1.173 2.979zM11.853 7.954c0.71 0.284 1.374 0.652 1.975 1.099 0.677 0.503 1.283 1.107 1.8 1.794 0.231 0.307 0.194 0.731-0.085 0.986-0.321 0.292-0.835 0.24-1.099-0.111-0.43-0.571-0.932-1.072-1.493-1.489-0.814-0.604-1.743-1.029-2.773-1.269 0.557-0.374 1.117-0.711 1.675-1.010zM2.656 16.989c0.732 0.253 1.419 0.594 2.047 1.018 0.699 0.472 1.332 1.048 1.879 1.712 0.245 0.297 0.228 0.722-0.040 0.989-0.307 0.306-0.823 0.277-1.101-0.061-0.455-0.552-0.979-1.030-1.558-1.421s-1.219-0.696-1.907-0.911c0.201-0.438 0.428-0.881 0.681-1.327zM6.443 24.63c-2.112 1.169-3.62 1.258-4.61 0.271-0.594-0.592-0.895-1.446-0.895-2.536 0-0.958 0.237-2.040 0.673-3.18 0.633 0.19 1.22 0.464 1.747 0.82 0.504 0.341 0.962 0.758 1.36 1.24 0.629 0.762 1.791 0.822 2.487 0.128 0.612-0.611 0.656-1.578 0.102-2.25-0.605-0.733-1.304-1.369-2.078-1.892-0.643-0.434-1.341-0.789-2.081-1.061 0.384-0.608 0.812-1.217 1.28-1.819 0.958 0.054 2.268 0.302 3.477 1.118 0.505 0.341 0.962 0.758 1.36 1.24 0.591 0.716 1.652 0.821 2.364 0.239 0.717-0.587 0.813-1.647 0.224-2.361-0.372-0.451-0.785-0.87-1.225-1.245-0.197-0.168-0.493-0.144-0.661 0.053s-0.144 0.493 0.053 0.661c0.399 0.339 0.772 0.719 1.11 1.127 0.262 0.318 0.22 0.781-0.095 1.038s-0.785 0.208-1.047-0.11c-0.455-0.552-0.979-1.030-1.558-1.42-0.95-0.641-2.073-1.054-3.288-1.215 0.372-0.435 0.764-0.863 1.174-1.282 0.695 0.165 1.359 0.405 1.977 0.716 0.228 0.114 0.512 0.026 0.629-0.208 0.116-0.231 0.023-0.513-0.208-0.629-0.514-0.258-1.057-0.471-1.62-0.639 0.656-0.616 1.331-1.187 2.016-1.706 1.254 0.148 2.358 0.57 3.284 1.258 0.489 0.363 0.927 0.8 1.303 1.3 0.594 0.789 1.754 0.9 2.479 0.24 0.64-0.582 0.727-1.546 0.204-2.243-0.571-0.759-1.241-1.426-1.99-1.983-0.451-0.335-0.933-0.63-1.441-0.884 0.393-0.175 0.783-0.33 1.169-0.462 1.040-0.357 1.986-0.534 2.811-0.534 1.074 0 1.942 0.301 2.541 0.898 0.457 0.456 0.679 1.005 0.679 1.68 0 1.128-0.629 2.598-1.871 4.369-0.62 0.885-1.4 1.919-2.201 2.753-2.793 2.907-6.176 6.596-9.632 8.51z"></path>
</svg>
