<!-- Generated by IcoMoon.io -->
<svg version="1.1" xmlns="http://www.w3.org/2000/svg" width="32" height="32" viewBox="0 0 32 32">
<title>cauliflower</title>
<path d="M29.47 20.145c1.245-0.844 2.030-2.271 2.030-3.814 0-1.408-0.655-2.738-1.743-3.604 0.729-1.26 1.112-2.685 1.112-4.156 0-4.585-3.731-8.316-8.316-8.316-1.426 0-2.814 0.362-4.047 1.050-0.767-0.826-1.849-1.306-2.992-1.306-1.188 0-2.311 0.524-3.079 1.403-1.073-0.899-2.441-1.403-3.853-1.403-3.306 0-5.996 2.69-5.996 5.996 0 1.86 0.851 3.525 2.185 4.625-0.082 1.124 0.202 2.249 0.817 3.205 0.565 0.879 1.377 1.562 2.326 1.971-1.024 1.859-2.31 3.579-3.805 5.074l-3.024 3.024c-0.779 0.779-0.779 2.046 0 2.824l4.696 4.696c0.377 0.377 0.879 0.585 1.412 0.585s1.035-0.208 1.412-0.585l1.675-1.675c2.501-2.501 5.758-4.194 9.236-4.813 0.148 3.175 2.778 5.712 5.989 5.712 3.306 0 5.996-2.69 5.996-5.996-0-1.753-0.744-3.371-2.030-4.499zM6.030 11.42c0.775 0.366 1.639 0.571 2.551 0.571 0.351 0 0.696-0.031 1.035-0.090l-0.28 0.769c-0.249 0.683-0.533 1.355-0.849 2.012-1.361-0.553-2.3-1.827-2.457-3.262zM19.592 23.647c-1.979 0.319-3.895 0.962-5.665 1.887-0.063-0.289-0.206-0.555-0.42-0.769l-0.762-0.762c-0.294-0.294-0.685-0.456-1.101-0.456s-0.807 0.162-1.101 0.456l-1.81 1.81c-0.244 0.244-0.244 0.64 0 0.884s0.64 0.244 0.884 0l1.81-1.81c0.078-0.078 0.17-0.090 0.217-0.090s0.139 0.012 0.217 0.090l0.762 0.762c0.12 0.12 0.12 0.315 0 0.434l-0.454 0.454c-0.029 0.029-0.054 0.060-0.076 0.093-0.965 0.654-1.87 1.398-2.697 2.226l-1.675 1.675c-0.291 0.291-0.765 0.291-1.056 0l-3.32-3.32 3.155-3.155c0.244-0.244 0.244-0.64 0-0.884s-0.64-0.244-0.884 0l-3.155 3.155-0.492-0.492c-0.291-0.291-0.291-0.765 0-1.056l3.024-3.024c2.432-2.432 4.34-5.425 5.519-8.656l0.46-1.262c0.473 0.551 1.036 1.005 1.659 1.347l-1.404 4.908c-0.078 0.274 0.038 0.566 0.284 0.711 0.099 0.058 0.208 0.086 0.317 0.086 0.162 0 0.322-0.063 0.442-0.183l4.329-4.329c0.456 0.469 0.964 0.88 1.519 1.23-0.103 0.444-0.155 0.898-0.155 1.356 0 0.473 0.055 0.936 0.159 1.383l-3.050 3.050c-0.179 0.179-0.232 0.448-0.136 0.681s0.325 0.386 0.577 0.386h3.049c0.345 0 0.625-0.28 0.625-0.625s-0.28-0.625-0.625-0.625h-1.54l1.568-1.568c0.396 0.794 0.97 1.498 1.692 2.056-0.343 0.606-0.576 1.263-0.69 1.948zM13.092 16.115l0.7-2.446c0.481 0.144 0.985 0.227 1.5 0.246l-2.2 2.2zM25.407 29.389c-2.536-0.051-4.604-2.125-4.647-4.662-0.017-1.018 0.285-1.995 0.871-2.822 0.056-0.079 0.098-0.167 0.115-0.262 0.046-0.263-0.073-0.513-0.286-0.644-0.994-0.617-1.705-1.551-2.037-2.629-0.004-0.015-0.009-0.030-0.014-0.045-0.129-0.435-0.197-0.892-0.197-1.361 0-0.493 0.076-0.981 0.226-1.45 0.092-0.288-0.025-0.603-0.29-0.749-0.861-0.475-1.632-1.14-2.228-1.926-0.119-0.157-0.304-0.247-0.498-0.247-0.035 0-0.070 0.003-0.105 0.009-0.27 0.046-0.54 0.069-0.805 0.069-1.631 0-3.129-0.824-4.007-2.204-0.172-0.27-0.52-0.367-0.807-0.224-0.662 0.331-1.375 0.499-2.118 0.499-2.617 0-4.746-2.129-4.746-4.746s2.129-4.745 4.746-4.745c1.296 0 2.546 0.538 3.44 1.478 0.042 0.042 0.086 0.083 0.125 0.128 0.764 0.864 1.185 1.968 1.189 3.125 0.001 0.34 0.268 0.63 0.608 0.639 0.353 0.010 0.643-0.274 0.643-0.625 0-1.348-0.449-2.641-1.273-3.693 0.534-0.657 1.343-1.053 2.201-1.053 0.931 0 1.804 0.459 2.334 1.227 0.192 0.279 0.572 0.354 0.855 0.169 1.229-0.8 2.671-1.196 4.149-1.135 3.755 0.156 6.752 3.271 6.768 7.029 0.006 1.426-0.411 2.801-1.204 3.977-0.021 0.022-0.042 0.046-0.060 0.072-1.334 1.877-3.456 3.015-5.681 3.049-0.332 0.005-0.62 0.253-0.641 0.584-0.023 0.365 0.266 0.666 0.624 0.666 0.002 0 0.005 0 0.007-0 2.452-0.028 4.796-1.19 6.375-3.134 0.758 0.631 1.213 1.578 1.213 2.578 0 1.389-0.874 2.65-2.175 3.138-0.224 0.084-0.38 0.288-0.403 0.526s0.093 0.468 0.297 0.593c1.428 0.87 2.281 2.386 2.281 4.056-0 2.649-2.182 4.798-4.843 4.745z"></path>
<path d="M22.582 3.263l-0.029-0c-0.345 0-0.625 0.28-0.625 0.625s0.28 0.625 0.625 0.625l0.020 0c0.002 0 0.003 0 0.005 0 0.343 0 0.622-0.277 0.625-0.62 0.003-0.345-0.275-0.627-0.62-0.63z"></path>
<path d="M25.266 4.008c-0.296-0.176-0.68-0.079-0.857 0.217s-0.079 0.68 0.217 0.857c1.224 0.729 1.985 2.066 1.985 3.49 0 0.345 0.28 0.625 0.625 0.625s0.625-0.28 0.625-0.625c0-1.861-0.994-3.61-2.595-4.564z"></path>
<path d="M8.233 21.437c-0.116-0.116-0.277-0.183-0.442-0.183s-0.326 0.067-0.442 0.183c-0.116 0.116-0.183 0.277-0.183 0.442s0.067 0.326 0.183 0.442c0.116 0.116 0.277 0.183 0.442 0.183s0.326-0.066 0.442-0.183c0.117-0.117 0.183-0.277 0.183-0.442s-0.066-0.326-0.183-0.442z"></path>
</svg>
