<!-- Generated by IcoMoon.io -->
<svg version="1.1" xmlns="http://www.w3.org/2000/svg" width="32" height="32" viewBox="0 0 32 32">
<title>coffee-cup</title>
<path d="M31.375 12.906h-5.125v-1.323c0-0.345-0.28-0.625-0.625-0.625h-13.5c-0.345 0-0.625 0.28-0.625 0.625s0.28 0.625 0.625 0.625h12.875v4.792c0 4.209-2.247 8.121-5.876 10.25h-11.998c-3.629-2.129-5.876-6.041-5.876-10.25v-4.792h4.188c0.345 0 0.625-0.28 0.625-0.625s-0.28-0.625-0.625-0.625h-4.813c-0.345 0-0.625 0.28-0.625 0.625v5.417c0 2.363 0.635 4.679 1.836 6.699 0.81 1.362 1.861 2.565 3.092 3.551h-4.304c-0.345 0-0.625 0.28-0.625 0.625 0 2.275 1.85 4.125 4.125 4.125h19.5c2.275 0 4.125-1.85 4.125-4.125 0-0.345-0.28-0.625-0.625-0.625h-5.804c1.133-0.907 2.113-1.999 2.894-3.229h1.764c3.32 0 6.021-2.701 6.021-6.021v-4.469c0-0.345-0.28-0.625-0.625-0.625zM26.432 28.5c-0.286 1.286-1.436 2.25-2.807 2.25h-19.5c-1.371 0-2.52-0.964-2.807-2.25h25.113zM26.25 17v-0.344h2v1.344c0 1.252-1.019 2.271-2.271 2.271h-0.142c0.273-1.063 0.413-2.162 0.413-3.271zM30.75 18c0 2.631-2.14 4.771-4.771 4.771h-1.064c0.2-0.408 0.378-0.825 0.534-1.25h0.53c1.941 0 3.521-1.579 3.521-3.521v-1.969c0-0.345-0.28-0.625-0.625-0.625h-2.625v-1.25h4.5v3.844z"></path>
<path d="M13.722 3.459l-0.325-0.408c-0.477-0.599-0.478-1.437-0.002-2.037 0.215-0.27 0.169-0.663-0.101-0.878s-0.664-0.169-0.878 0.101c-0.84 1.058-0.839 2.536 0.003 3.593l0.325 0.408c0.624 0.783 0.625 1.878 0.002 2.662l-0.333 0.42c-0.215 0.27-0.169 0.663 0.101 0.878 0.115 0.091 0.252 0.136 0.388 0.136 0.184 0 0.367-0.081 0.49-0.236l0.333-0.42c0.986-1.243 0.985-2.977-0.004-4.218z"></path>
<path d="M17.186 4.864l-0.325-0.408c-0.477-0.599-0.478-1.437-0.002-2.037 0.215-0.27 0.169-0.663-0.101-0.878s-0.663-0.169-0.878 0.101c-0.84 1.058-0.839 2.536 0.003 3.593l0.325 0.408c0.624 0.783 0.625 1.878 0.002 2.662l-0.333 0.42c-0.215 0.27-0.169 0.664 0.101 0.878 0.115 0.091 0.252 0.135 0.388 0.135 0.184 0 0.367-0.081 0.49-0.236l0.333-0.42c0.986-1.243 0.985-2.977-0.003-4.218z"></path>
<path d="M10.258 4.864l-0.325-0.408c-0.477-0.599-0.478-1.437-0.002-2.037 0.215-0.27 0.169-0.663-0.101-0.878s-0.664-0.169-0.878 0.101c-0.84 1.059-0.839 2.536 0.003 3.593l0.325 0.408c0.624 0.783 0.625 1.878 0.002 2.662l-0.333 0.42c-0.215 0.27-0.169 0.663 0.101 0.878 0.115 0.091 0.252 0.136 0.388 0.136 0.184 0 0.367-0.081 0.49-0.236l0.333-0.42c0.986-1.243 0.985-2.977-0.004-4.218z"></path>
<path d="M9.393 11.141c-0.116-0.116-0.277-0.183-0.442-0.183s-0.326 0.067-0.442 0.183c-0.116 0.117-0.183 0.277-0.183 0.442s0.067 0.326 0.183 0.443c0.116 0.116 0.277 0.182 0.442 0.182s0.326-0.066 0.442-0.182c0.117-0.117 0.183-0.277 0.183-0.443s-0.066-0.326-0.183-0.442z"></path>
<path d="M22.625 16.375c-0.345 0-0.625 0.28-0.625 0.625 0 2.32-0.941 4.6-2.582 6.255-0.243 0.245-0.241 0.641 0.004 0.884 0.122 0.121 0.281 0.181 0.44 0.181 0.161-0 0.322-0.062 0.444-0.185 1.871-1.887 2.944-4.488 2.944-7.135 0-0.345-0.28-0.625-0.625-0.625z"></path>
<path d="M18.368 24.952c-0.17-0.301-0.551-0.407-0.851-0.237l-0.014 0.008c-0.301 0.17-0.407 0.551-0.237 0.851 0.115 0.204 0.327 0.318 0.545 0.318 0.104 0 0.209-0.026 0.306-0.081l0.014-0.008c0.301-0.17 0.407-0.551 0.237-0.851z"></path>
</svg>
