<!-- Generated by IcoMoon.io -->
<svg version="1.1" xmlns="http://www.w3.org/2000/svg" width="32" height="32" viewBox="0 0 32 32">
<title>egg</title>
<path d="M27.676 19.817l-3.98-2.389c-0.259-0.156-0.596-0.117-0.814 0.1l-3.457 3.456-3.538-4.718c-0.116-0.155-0.294-0.251-0.487-0.265-0.186-0.012-0.382 0.057-0.518 0.193l-3.529 3.529-2.195-2.195c-0.165-0.165-0.408-0.232-0.63-0.176l-4.019 0.989c-0.298 0.073-0.508 0.34-0.508 0.647 0 0.182 0.005 0.365 0.010 0.544 0.004 0.161 0.009 0.32 0.009 0.473 0 6.613 5.383 11.994 12 11.994 6.5 0 11.763-5.090 11.98-11.589 0.008-0.241-0.116-0.469-0.324-0.594zM16.019 30.667c-5.881 0-10.667-4.783-10.667-10.661 0-0.16-0.005-0.328-0.009-0.497l3.137-0.772 2.401 2.401c0.26 0.26 0.682 0.26 0.943 0l3.457-3.456 3.538 4.718c0.116 0.155 0.294 0.251 0.487 0.265 0.19 0.016 0.383-0.057 0.518-0.193l3.631-3.632 3.191 1.915c-0.384 5.589-4.98 9.912-10.628 9.912z"></path>
<path d="M5.584 15.462l2.897-0.724 2.4 2.4c0.26 0.26 0.682 0.26 0.943 0l3.457-3.456 3.538 4.718c0.116 0.155 0.294 0.251 0.487 0.265 0.016 0.001 0.031 0.002 0.047 0.002 0.176 0 0.346-0.070 0.471-0.195l3.631-3.632 3.116 1.869c0.224 0.136 0.51 0.125 0.727-0.027 0.215-0.152 0.322-0.417 0.27-0.675-1.324-6.647-5.784-16.007-11.548-16.007-4.997 0-9.439 7.372-11.243 14.656-0.056 0.227 0.010 0.467 0.176 0.632 0.167 0.165 0.405 0.233 0.633 0.174zM16.019 1.333c4.174 0 8.207 6.711 9.901 13.43l-2.225-1.335c-0.259-0.156-0.596-0.117-0.814 0.1l-3.457 3.456-3.538-4.718c-0.116-0.155-0.294-0.251-0.487-0.265-0.016-0.001-0.031-0.002-0.047-0.002-0.176 0-0.346 0.070-0.471 0.195l-3.529 3.529-2.195-2.195c-0.165-0.165-0.405-0.234-0.633-0.175l-2.167 0.541c1.792-6.276 5.628-12.561 9.662-12.561z"></path>
</svg>
