<!-- Generated by IcoMoon.io -->
<svg version="1.1" xmlns="http://www.w3.org/2000/svg" width="32" height="32" viewBox="0 0 32 32">
<title>meat</title>
<path d="M30.813 12.050c0-0.003 0-0.007 0-0.011 0-2.083-0.849-3.968-2.219-5.327l-0-0c-4.489-4.176-12.694-5.082-19.707 1.283l-5.896 5.895c-1.114 1.109-1.803 2.644-1.803 4.34 0 0.004 0 0.008 0 0.013v-0.001 4.2c0 0 0 0.001 0 0.001 0 3.398 2.753 6.153 6.15 6.156h0c0.203 0 0.408-0.010 0.613-0.030 1.892-0.189 3.511-1.212 4.505-2.69l0.014-0.022c0.978-1.455 2.619-2.4 4.479-2.4 0.002 0 0.005 0 0.007 0h-0c0.1 0 0.2 0.002 0.296 0.007l5.61 0.311c0.123 0.007 0.267 0.011 0.412 0.011 4.164 0 7.539-3.375 7.54-7.539v-0zM3.61 14.508l5.88-5.88c3.383-3.070 7.053-4.353 10.391-4.353 0.041-0 0.090-0.001 0.139-0.001 3.070 0 5.868 1.165 7.976 3.076l-0.010-0.009c1.205 1.206 1.951 2.871 1.951 4.711 0 3.68-2.983 6.663-6.663 6.663-0.128 0-0.255-0.004-0.38-0.011l0.017 0.001-5.615-0.311c-0.114-0.005-0.225-0.008-0.34-0.008-0.002 0-0.005 0-0.008 0-2.163 0-4.069 1.098-5.192 2.766l-0.014 0.022c-0.961 1.427-2.571 2.354-4.397 2.354-2.918 0-5.284-2.366-5.284-5.284 0-1.46 0.592-2.781 1.549-3.737l0-0zM27.986 20.958c-1.207 1.206-2.875 1.952-4.716 1.952-0.127 0-0.253-0.004-0.378-0.011l0.017 0.001-5.613-0.309c-0.115-0.005-0.227-0.008-0.341-0.008-0.002 0-0.005 0-0.007 0-2.163 0-4.070 1.098-5.193 2.767l-0.014 0.022c-0.961 1.427-2.57 2.353-4.396 2.353-2.917 0-5.282-2.365-5.282-5.282 0-0 0-0 0-0.001v0-1.033c1.093 1.805 3.045 2.992 5.275 2.994h0c0.203 0 0.408-0.010 0.613-0.030 1.892-0.189 3.511-1.212 4.505-2.69l0.014-0.022c0.978-1.455 2.619-2.4 4.479-2.4 0.002 0 0.005 0 0.007 0h-0q0.15 0 0.296 0.006l5.61 0.31c0.123 0.007 0.268 0.011 0.413 0.011 2.874 0 5.373-1.609 6.644-3.976l0.020-0.040v0.675c0 0.005 0 0.011 0 0.017 0 1.834-0.746 3.494-1.951 4.693l-0 0z"></path>
<path d="M21.18 21.303l-1.917-0.106c-0.010-0.001-0.021-0.001-0.033-0.001-0.242 0-0.438 0.196-0.438 0.438 0 0.236 0.187 0.429 0.421 0.437l0.001 0 1.942 0.106c0.004 0 0.008 0 0.012 0 0.242 0 0.438-0.196 0.438-0.438 0-0.238-0.189-0.431-0.425-0.438h-0.001z"></path>
<path d="M4.051 21.54c0.843 0.843 2.007 1.364 3.293 1.364 1.61 0 3.029-0.816 3.866-2.058l0.011-0.017c1.251-1.86 3.347-3.068 5.726-3.068 0.003 0 0.006 0 0.008 0h-0c0.125 0 0.245 0.003 0.378 0.009l5.609 0.31c0.096 0.005 0.207 0.008 0.32 0.008 1.671 0 3.183-0.675 4.28-1.768l-0 0c1.093-1.092 1.77-2.602 1.77-4.269 0-1.664-0.674-3.171-1.763-4.263l0 0c-1.977-1.792-4.614-2.89-7.507-2.89-0.051 0-0.102 0-0.154 0.001l0.008-0c-2.442 0-6.152 0.723-9.976 4.183l-5.868 5.867c-0.843 0.843-1.365 2.007-1.365 3.293 0 0.617 0.12 1.207 0.338 1.746l-0.011-0.031c0.245 0.617 0.597 1.144 1.037 1.582l0 0zM4.671 15.568l5.852-5.853c3.602-3.258 7.086-3.94 9.374-3.94 0.044-0.001 0.095-0.001 0.147-0.001 2.656 0 5.078 1.004 6.907 2.653l-0.009-0.008c0.924 0.932 1.496 2.216 1.496 3.633 0 1.426-0.578 2.717-1.514 3.652l-0 0c-0.94 0.934-2.235 1.511-3.665 1.511-0.094 0-0.188-0.003-0.281-0.007l0.013 0.001-5.613-0.311c-0.152-0.007-0.286-0.010-0.423-0.010-0.003 0-0.006 0-0.009 0-2.681 0-5.044 1.361-6.435 3.43l-0.018 0.028c-0.688 1.022-1.841 1.685-3.148 1.685-1.044 0-1.99-0.423-2.675-1.107l0 0c-0.683-0.686-1.106-1.633-1.108-2.677v-0c0-0.002 0-0.005 0-0.008 0-1.043 0.424-1.986 1.109-2.668l0-0z"></path>
<path d="M22.867 12.488c1.070 0 1.938-0.867 1.938-1.938s-0.867-1.938-1.938-1.938c-1.070 0-1.938 0.867-1.938 1.938v0c0.001 1.070 0.868 1.936 1.937 1.938h0zM22.867 9.488c0.587 0 1.063 0.476 1.063 1.063s-0.476 1.063-1.063 1.063c-0.587 0-1.063-0.476-1.063-1.063v0c0.001-0.587 0.476-1.062 1.062-1.063h0z"></path>
</svg>
