<!-- Generated by IcoMoon.io -->
<svg version="1.1" xmlns="http://www.w3.org/2000/svg" width="32" height="32" viewBox="0 0 32 32">
<title>snowflake</title>
<path d="M0.644 18.818l1.028 1.029 3.119-3.119h1.679l-3.138 3.138 1.028 1.029 4.166-4.166h5.716l-5.541 5.541-4.922-0v1.455h3.468l-2.918 2.918 1.029 1.029 2.918-2.919v3.468h1.454v-4.922l5.541-5.541v5.716l-4.166 4.166 1.029 1.029 3.138-3.138v1.679l-3.119 3.119 1.028 1.029 2.091-2.091v2.735h1.455v-2.735l2.091 2.091 1.029-1.029-3.119-3.119v-1.679l3.138 3.138 1.029-1.029-4.166-4.166v-5.716l5.541 5.541v4.922h1.454v-3.468l2.918 2.918 1.029-1.029-2.918-2.919h3.468v-1.455l-4.922 0-5.541-5.541h5.716l4.166 4.166 1.029-1.029-3.138-3.138h1.679l3.119 3.119 1.029-1.029-2.091-2.091h2.735v-1.455h-2.735l2.091-2.091-1.029-1.028-3.119 3.119h-1.679l3.138-3.138-1.029-1.029-4.166 4.166h-5.716l5.541-5.541h4.923v-1.455h-3.468l2.344-2.344-1.029-1.029-2.344 2.344v-3.468h-1.454v4.922l-5.541 5.541v-5.716l4.166-4.166-1.029-1.029-3.138 3.138v-1.679l3.119-3.119-1.029-1.028-2.091 2.091v-2.735h-1.455v2.735l-2.091-2.091-1.028 1.028 3.119 3.119v1.679l-3.138-3.138-1.029 1.029 4.166 4.166v5.716l-5.541-5.541v-4.922h-1.454v3.468l-2.344-2.344-1.029 1.029 2.344 2.344h-3.468v1.455h4.923l5.541 5.541h-5.717l-4.166-4.166-1.029 1.029 3.138 3.138h-1.679l-3.119-3.119-1.028 1.028 2.091 2.091h-2.734v1.455h2.734z"></path>
</svg>
